<svg xmlns="http://www.w3.org/2000/svg" viewBox="0 0 511.999 511.999" style="enable-background:new 0 0 511.999 511.999"
  xml:space="preserve">
  <path style="fill:#5b83cc"
    d="M52.683 397.719C97.473 461.863 171.83 503.83 255.999 503.83c82.092 0 154.849-39.92 199.944-101.4l-24.278-22.349 50.359-22.349a246.157 246.157 0 0 0 20.301-74.397l.009-.114-96.361-88.588 16.309-122.39C378.311 32.426 319.988 8.171 255.999 8.171 119.127 8.171 8.169 119.128 8.169 256a256.99 256.99 0 0 0 .111 7.201l67.24 67.048-22.837 67.47z" />
  <circle style="fill:#8fe673" cx="120.388" cy="183.989" r="22.349" />
  <circle style="fill:#8fe673" cx="188.105" cy="91.019" r="18.017" />
  <circle style="fill:#8fe673" cx="255.997" cy="453.126" r="18.017" />
  <path style="fill:#8fe673"
    d="M503.828 255.999c0-72.882-31.464-138.413-81.546-183.759H278.348c-12.343 0-22.349 10.006-22.349 22.349s10.006 22.349 22.349 22.349h62.575c12.343 0 22.349 10.006 22.349 22.349s-10.006 22.349-22.349 22.349H218.431c-12.343 0-22.349 10.006-22.349 22.349s10.006 22.349 22.349 22.349h122.492c12.343 0 22.349 10.006 22.349 22.349s-10.006 22.349-22.349 22.349h-68.834c-8.887 0-16.092 7.204-16.092 16.092 0 8.887 7.204 16.092 16.092 16.092h230.244a250.33 250.33 0 0 0 1.495-27.217zM482.05 357.731h-78.421c-12.343 0-22.349 10.006-22.349 22.349s10.006 22.349 22.349 22.349h52.314a247.54 247.54 0 0 0 26.107-44.698zM297.298 352.599H130.14c-12.343 0-22.349-10.006-22.349-22.349s10.006-22.349 22.349-22.349h52.771c12.343 0 22.349-10.006 22.349-22.349s-10.006-22.349-22.349-22.349H8.28C9.701 312.97 25.799 359.054 52.389 397.3h244.908c12.343 0 22.349-10.006 22.349-22.349s-10.005-22.352-22.348-22.352z" />
  <path style="opacity:.2;enable-background:new"
    d="M310.469 482.041c-136.872 0-247.83-110.958-247.83-247.83 0-93.893 52.219-175.587 129.196-217.636C86.069 44.848 8.169 141.319 8.169 255.999c0 136.872 110.958 247.83 247.83 247.83 42.978 0 83.398-10.945 118.634-30.193-20.468 5.472-41.972 8.405-64.164 8.405z" />
  <path
    d="M462.706 104.902c-7.721-10.537-16.279-20.549-25.537-29.769l-.149-.153C388.668 26.628 324.382 0 256.001 0c-61.9 0-121.65 22.395-168.245 63.058a8.17 8.17 0 0 0-.783 11.528 8.17 8.17 0 0 0 11.528.784c43.617-38.066 99.553-59.029 157.5-59.029 52.472 0 102.362 16.759 143.58 47.729h-55.173a8.17 8.17 0 0 0-8.171 8.171 8.17 8.17 0 0 0 8.171 8.171h74.683l.648.602a243.05 243.05 0 0 1 31.189 35.492 239.263 239.263 0 0 1 23.468 40.663 237.817 237.817 0 0 1 14.496 41.947l.041.175c4.291 17.654 6.498 35.831 6.711 53.994a237.964 237.964 0 0 1-.41 16.914l-.01.168c-.094 1.56-.202 3.121-.325 4.682H272.092c-4.367 0-7.921-3.554-7.921-7.921 0-4.367 3.554-7.921 7.921-7.921h68.835c16.828 0 30.52-13.692 30.52-30.521 0-16.828-13.69-30.52-30.52-30.52H218.434c-7.819 0-14.18-6.36-14.18-14.179s6.361-14.18 14.18-14.18h122.492c16.828 0 30.52-13.691 30.52-30.52s-13.69-30.521-30.52-30.521h-62.575c-7.819 0-14.18-6.36-14.18-14.179s6.361-14.18 14.18-14.18h35.555c4.513 0 8.171-3.658 8.171-8.171s-3.657-8.171-8.171-8.171h-35.555c-16.829 0-30.521 13.692-30.521 30.521 0 16.828 13.691 30.52 30.521 30.52h62.575c7.819 0 14.179 6.361 14.179 14.18 0 7.818-6.36 14.179-14.179 14.179H218.434c-16.829 0-30.521 13.692-30.521 30.521 0 16.828 13.691 30.52 30.521 30.52h122.492c7.819 0 14.179 6.36 14.179 14.179s-6.36 14.18-14.179 14.18h-68.835c-13.378 0-24.262 10.883-24.262 24.262 0 13.379 10.883 24.262 24.262 24.262h220.952a238.676 238.676 0 0 1-16.352 58.171h-73.06c-16.829 0-30.521 13.69-30.521 30.521 0 16.828 13.69 30.52 30.521 30.52h35.488a240.313 240.313 0 0 1-76.246 59.951 8.17 8.17 0 0 0-3.661 10.959 8.17 8.17 0 0 0 10.961 3.66c38.612-19.273 71.69-47.969 96.263-83.376a256.139 256.139 0 0 0 23.066-40.708c.021-.047.034-.096.053-.143 13.746-30.565 21.352-63.642 22.331-97.477.011-.353.019-.706.028-1.059a257.677 257.677 0 0 0-3.265-47.985 253.33 253.33 0 0 0-2.456-12.986c-7.46-34.541-22.003-67.031-42.9-95.726-.196-.268-.39-.54-.587-.809zm5.396 262.748c-.315.596-.625 1.194-.945 1.787-.171.318-.349.634-.522.952a240.427 240.427 0 0 1-8.326 14.115 239.515 239.515 0 0 1-3.391 5.171c-.398.59-.796 1.182-1.199 1.769-.65.948-1.323 1.878-1.986 2.815h-48.1c-7.819 0-14.18-6.36-14.18-14.179s6.361-14.18 14.18-14.18h65.388c-.303.585-.612 1.167-.919 1.75z" />
  <path
    d="M150.908 183.988c0-16.829-13.691-30.521-30.521-30.521s-30.521 13.691-30.521 30.521c0 16.828 13.691 30.52 30.521 30.52s30.521-13.692 30.521-30.52zm-44.7 0c0-7.819 6.361-14.18 14.18-14.18s14.18 6.361 14.18 14.18-6.361 14.179-14.18 14.179-14.18-6.361-14.18-14.179zM214.299 91.014c0-14.44-11.747-26.187-26.186-26.187-14.44 0-26.187 11.747-26.187 26.187 0 14.439 11.747 26.187 26.187 26.187 14.438 0 26.186-11.747 26.186-26.187zm-36.033 0c0-5.43 4.418-9.846 9.846-9.846s9.845 4.416 9.845 9.846c0 5.428-4.416 9.846-9.845 9.846s-9.846-4.416-9.846-9.846zM229.814 453.128c0 14.439 11.747 26.187 26.187 26.187 14.44 0 26.187-11.748 26.187-26.187 0-14.439-11.747-26.187-26.187-26.187-14.44 0-26.187 11.748-26.187 26.187zm36.033 0c0 5.43-4.418 9.846-9.846 9.846s-9.846-4.416-9.846-9.846c0-5.428 4.418-9.846 9.846-9.846 5.429 0 9.846 4.417 9.846 9.846zM68.306 263.202a8.17 8.17 0 0 0 8.171 8.171h106.437c7.819 0 14.18 6.361 14.18 14.179s-6.361 14.179-14.18 14.179h-52.771c-16.828 0-30.52 13.692-30.52 30.521 0 16.828 13.691 30.52 30.52 30.52H297.3c7.819 0 14.18 6.361 14.18 14.18 0 7.818-6.361 14.179-14.18 14.179h-99.97c-4.513 0-8.171 3.658-8.171 8.171s3.657 8.171 8.171 8.171h99.97c16.829 0 30.521-13.69 30.521-30.52s-13.69-30.521-30.521-30.521H130.143c-7.819 0-14.179-6.36-14.179-14.179s6.36-14.18 14.179-14.18h52.771c16.829 0 30.521-13.69 30.521-30.52s-13.691-30.52-30.521-30.52H76.477a8.167 8.167 0 0 0-8.171 8.169z" />
  <path
    d="M.135 264.267a254.714 254.714 0 0 0 .776 13.31c4.995 60.241 30.842 116.212 74.072 159.441 48.352 48.352 112.64 74.98 181.019 74.98 28.478 0 56.47-4.655 83.2-13.838a8.17 8.17 0 0 0 5.072-10.382 8.17 8.17 0 0 0-10.381-5.073c-25.018 8.593-51.225 12.951-77.891 12.951-64.015 0-124.198-24.929-169.465-70.194a243.922 243.922 0 0 1-17.89-19.996h98.181c4.513 0 8.171-3.658 8.171-8.171s-3.657-8.171-8.171-8.171H56.708c-23.423-34.988-37.095-75.287-39.839-117.299l-.028-.456h29.132c4.513 0 8.171-3.658 8.171-8.171s-3.657-8.171-8.171-8.171H16.354c.236-58.768 21.925-115.177 61.15-158.933a8.17 8.17 0 0 0-.631-11.538 8.171 8.171 0 0 0-11.538.63C23.205 132.187.002 192.849.002 256.001c0 2.756.043 5.512.133 8.266z" />
</svg>