<?xml version="1.0" standalone="no"?>
<!DOCTYPE svg PUBLIC "-//W3C//DTD SVG 20010904//EN"
 "http://www.w3.org/TR/2001/REC-SVG-20010904/DTD/svg10.dtd">
<svg version="1.0" xmlns="http://www.w3.org/2000/svg"
 width="700.000000pt" height="700.000000pt" viewBox="0 0 700.000000 700.000000"
 preserveAspectRatio="xMidYMid meet">
<metadata>
Created by potrace 1.14, written by Peter Selinger 2001-2017
</metadata>
<g transform="translate(0.000000,700.000000) scale(0.100000,-0.100000)"
fill="#000000" stroke="none">
<path d="M3278 6995 c-1 -1 -42 -5 -89 -9 -47 -4 -95 -8 -105 -10 -10 -2 -41
-7 -69 -10 -47 -6 -135 -21 -180 -30 -141 -29 -197 -43 -295 -71 -131 -38
-370 -122 -385 -136 -5 -5 -15 -9 -21 -9 -21 0 -262 -120 -389 -193 -103 -60
-264 -164 -315 -204 -123 -96 -219 -175 -236 -194 -31 -34 -39 -82 -21 -119
l15 -30 -65 -65 c-63 -63 -85 -76 -98 -55 -8 13 -71 13 -98 -1 -27 -14 -56
-46 -157 -171 -352 -437 -605 -983 -705 -1523 -10 -49 -18 -97 -20 -105 -4
-20 -18 -120 -21 -145 -26 -236 -26 -668 1 -826 2 -13 6 -46 9 -74 47 -416
239 -955 472 -1328 27 -43 54 -86 59 -96 82 -138 298 -402 471 -575 489 -487
1132 -828 1790 -951 116 -21 134 -24 184 -31 25 -3 56 -7 70 -10 157 -25 682
-25 842 1 20 3 75 11 144 20 123 17 329 68 512 127 105 34 132 61 132 131 0
20 4 37 10 37 5 0 50 18 100 39 87 37 91 38 103 20 17 -24 75 -48 105 -43 21
4 68 28 212 107 92 51 307 196 414 279 155 121 329 284 455 427 31 35 63 71
71 80 8 9 31 37 50 61 19 25 38 50 43 55 37 47 102 138 162 230 251 384 427
828 509 1285 14 81 17 101 32 215 3 27 8 61 10 75 9 50 11 527 3 612 -13 140
-22 208 -39 308 -6 36 -13 79 -16 95 -14 79 -69 287 -105 397 -70 213 -106
300 -211 506 -301 592 -760 1081 -1336 1425 -121 73 -410 217 -434 217 -8 0
-18 4 -23 9 -6 5 -57 26 -115 46 -58 21 -112 40 -120 43 -18 6 -8 3 -145 42
-91 26 -187 49 -320 76 -11 2 -38 6 -60 9 -22 3 -51 7 -65 10 -13 2 -52 7 -86
11 -33 3 -74 8 -90 10 -33 5 -540 14 -546 9z"/>
</g>
</svg>
